<svg xmlns="http://www.w3.org/2000/svg" viewBox="0 0 100 100" width="100%" height="100%">
  <defs>
    <linearGradient id="alienGrad" x1="0%" y1="0%" x2="100%" y2="100%">
      <stop offset="0%" stop-color="#FF9EAA" />
      <stop offset="100%" stop-color="#38BDF8" />
    </linearGradient>
    <filter id="alienGlow" x="-30%" y="-30%" width="160%" height="160%">
      <feGaussianBlur stdDeviation="3.5" result="blur" />
      <feMerge>
        <feMergeNode in="blur" />
        <feMergeNode in="SourceGraphic" />
      </feMerge>
    </filter>
  </defs>
  <g fill="url(#alienGrad)" filter="url(#alienGlow)">
    <rect x="20" y="15" width="10" height="10" />
    <rect x="70" y="15" width="10" height="10" />
    <rect x="30" y="25" width="40" height="10" />
    <rect x="20" y="35" width="60" height="10" />
    <rect x="10" y="45" width="80" height="20" />
    <rect x="20" y="65" width="60" height="10" />
    <rect x="10" y="75" width="10" height="15" />
    <rect x="30" y="75" width="10" height="15" />
    <rect x="60" y="75" width="10" height="15" />
    <rect x="80" y="75" width="10" height="15" />
  </g>
  <rect x="25" y="48" width="14" height="12" fill="#000000" />
  <rect x="61" y="48" width="14" height="12" fill="#000000" />
  <rect x="28" y="50" width="8" height="8" fill="#FFFFFF" />
  <rect x="64" y="50" width="8" height="8" fill="#FFFFFF" />
</svg>